<?xml version="1.0" encoding="utf-8"?>
<!-- Generator: Adobe Illustrator 24.3.0, SVG Export Plug-In . SVG Version: 6.00 Build 0)  -->
<svg version="1.1" id="Layer_1" xmlns="http://www.w3.org/2000/svg" xmlns:xlink="http://www.w3.org/1999/xlink" x="0px" y="0px"
	 viewBox="0 0 500 500" style="enable-background:new 0 0 500 500;" xml:space="preserve">

<g>
	<path class="icon--white" d="M325,325c-50,0-100,0-150,0c0-50,0-100,0-150c50,0,100,0,150,0C325,225,325,275,325,325z M265.82,276.83
		c0.78,4.91,1.73,9.38,2.15,13.89c0.35,3.8,0.05,7.66,0.08,11.49c0.04,5.71,1.18,6.54,6.47,4.81c32.18-10.56,49.46-46.6,37.65-78.28
		c-9.38-25.15-36.82-43.5-68.48-39.84c-25.39,2.93-47.67,21.66-53.95,46.69c-6.19,24.66,4.39,50.85,26.53,64.9
		c4.45,2.82,9.47,4.8,14.35,6.87c2.19,0.93,4.95,1.24,5.23-2.3c0.28-3.57,0.06-7.18,0.06-10.91c-2.7,0-4.69-0.02-6.67,0
		c-7.3,0.07-12.83-2.37-15.78-9.73c-1.05-2.61-3.5-4.77-5.64-6.79c-1-0.94-2.78-1.04-4.21-1.52c0.67-0.71,1.34-1.42,2.02-2.13
		c5.22-1.15,8.92,1.44,11.71,5.46c3.14,4.54,6.77,7.17,12.75,7.1c6.76-0.09,6.7-5.52,9.39-9.66c-2.1-0.36-3.71-0.6-5.31-0.93
		c-19.38-3.92-29.65-25.26-19.75-41.46c1.94-3.17,2.57-5.88,2.16-9.6c-0.38-3.43,0.22-7.68,2.12-10.32c0.86-1.19,5.96,0.58,9.1,1.21
		c1.27,0.25,2.54,0.88,3.63,1.62c2.9,1.96,5.78,2.21,9.34,1.68c5.88-0.86,12.03-1.49,17.85-0.67c6.3,0.88,11.8,1.01,17.47-2.5
		c2.51-1.56,8.03-2.61,9.02-1.37c2,2.5,1.83,6.73,2.53,10.25c0.06,0.3-0.1,0.66-0.21,0.97c-0.96,2.88-0.25,5.14,1.51,7.77
		c9.24,13.8,2.65,34.45-12.8,40.45C272.62,275.34,268.83,276.02,265.82,276.83z"/>
	<path class="icon--green" d="M299.64,348.67c10.76-3.03,24.34-5.55,36.96-10.62c55.31-22.21,78.9-98.68,45.82-149.79
		c-6.28-9.71-8.83-18.09-5.4-28.76c0.37-1.16,0.95-2.48,0.74-3.59c-2.49-13.04-1.9-28.7-9.05-37.95c-3.56-4.6-23.32-0.71-32.32,5.07
		c-20.29,13.03-40,12.54-62.55,9.27c-20.85-3.02-42.88-0.7-63.93,2.49c-12.74,1.94-23.05,1.01-33.44-6.23
		c-3.89-2.71-8.44-5.04-12.99-5.98c-11.23-2.32-29.51-8.87-32.58-4.48c-6.82,9.77-8.97,25.53-7.6,38.22
		c1.49,13.79-0.78,23.82-7.73,35.56c-35.48,60,1.32,139.03,70.73,153.54c5.73,1.2,11.51,2.09,19.02,3.44
		c-9.64,15.33-9.43,35.42-33.65,35.75c-21.41,0.29-34.4-9.46-45.66-26.27c-9.98-14.9-23.24-24.5-41.95-20.23
		c-2.41,2.62-4.81,5.25-7.22,7.87c5.11,1.79,11.49,2.17,15.06,5.65c7.66,7.47,16.44,15.47,20.19,25.15
		c10.55,27.24,30.37,36.27,56.51,36.02c7.1-0.07,14.2-0.01,23.89-0.01c0,13.82,0.79,27.19-0.22,40.41
		c-1,13.09-10.88,11.96-18.74,8.51c-17.48-7.68-35.46-14.99-51.4-25.45C42.86,384.24,4.97,287.23,27.15,195.93
		C49.67,103.24,129.45,33.9,220.38,23.05C333.73,9.51,432.01,77.46,465.61,170.58c42.33,117.31-19.56,250.78-134.82,289.89
		c-18.96,6.43-23.02,3.36-23.18-17.8c-0.1-14.19,0.97-28.48-0.28-42.55C305.85,383.39,302.45,366.84,299.64,348.67z"/>
</g>
</svg>
