<?xml version="1.0" encoding="utf-8"?>
<!-- Generator: Adobe Illustrator 24.3.0, SVG Export Plug-In . SVG Version: 6.00 Build 0)  -->
<svg version="1.1" id="Layer_1" xmlns="http://www.w3.org/2000/svg" xmlns:xlink="http://www.w3.org/1999/xlink" x="0px" y="0px"
	 viewBox="0 0 500 500" style="enable-background:new 0 0 500 500;" xml:space="preserve">
<style type="text/css">
	.st0{fill:#FFFFFF;}
	.st1{fill:#460A86;}
</style>
<g>
	<path class="st0" d="M-23.5,526c0-186.07,0-372.14,0-558.5c182.29,0,364.64,0,547.5,0c0,185.97,0,372.23,0,558.5
		C341.64,526,159.1,526-23.5,526z M250.39,478.31c127.07,0.01,227.28-101.67,227.35-230.69C477.81,116.84,378.3,14.91,250.56,14.9
		C122.93,14.89,22.74,117.21,22.83,247.45C22.92,376.17,123.59,478.3,250.39,478.31z"/>
	<path class="st1" d="M250.39,478.31C123.59,478.3,22.92,376.17,22.83,247.45C22.74,117.21,122.93,14.89,250.56,14.9
		c127.75,0.01,227.25,101.94,227.18,232.72C477.67,376.64,377.46,478.31,250.39,478.31z M206.64,193.03c0,72.08,0,140.57,0,209.18
		c21.67,0,41.98,0,66.25,0c0-40.99-0.8-80.62,0.31-120.19c0.65-23.24,14.09-35.25,34.46-34.71c20.1,0.54,29.9,11.35,30.24,35.85
		c0.54,39.47,0.14,78.96,0.14,119.11c24.75,0,44.99,0,65.79,0c0-51.49,2.1-101.74-0.61-151.73c-2.5-46.19-39.22-71.57-83.49-60.78
		c-16.91,4.12-32.97,11.86-46.41,16.84C253.38,183.34,228.88,198.99,206.64,193.03z M162.79,403.21c0-70.72,0-139.25,0-208.04
		c-21.05,0-40.76,0-61.16,0c0,69.8,0,138.31,0,208.04C122.41,403.21,142.09,403.21,162.79,403.21z M133.29,165.16
		c21.61-0.26,37.89-17.59,37.23-39.62c-0.63-21.28-16.72-36.8-38.05-36.7c-22.19,0.1-37.3,16.3-36.75,39.4
		C96.23,149.79,112.14,165.42,133.29,165.16z"/>
	<path class="st0" d="M206.64,193.03c22.24,5.96,46.74-9.69,66.68,13.57c13.44-4.98,29.5-12.71,46.41-16.84
		c44.27-10.79,80.98,14.6,83.49,60.78c2.71,49.99,0.61,100.24,0.61,151.73c-20.8,0-41.03,0-65.79,0c0-40.15,0.39-79.64-0.14-119.11
		c-0.33-24.5-10.14-35.31-30.24-35.85c-20.37-0.55-33.81,11.47-34.46,34.71c-1.11,39.57-0.31,79.2-0.31,120.19
		c-24.27,0-44.58,0-66.25,0C206.64,333.6,206.64,265.11,206.64,193.03z"/>
	<path class="st0" d="M162.79,403.21c-20.7,0-40.39,0-61.16,0c0-69.73,0-138.24,0-208.04c20.4,0,40.11,0,61.16,0
		C162.79,263.96,162.79,332.49,162.79,403.21z"/>
	<path class="st0" d="M133.29,165.16c-21.15,0.25-37.06-15.37-37.57-36.92c-0.55-23.1,14.57-39.3,36.75-39.4
		c21.33-0.1,37.42,15.42,38.05,36.7C171.18,147.58,154.9,164.9,133.29,165.16z"/>
</g>
</svg>
