<?xml version="1.0" encoding="utf-8"?>
<!-- Generator: Adobe Illustrator 24.3.0, SVG Export Plug-In . SVG Version: 6.00 Build 0)  -->
<svg version="1.1" id="Layer_1" xmlns="http://www.w3.org/2000/svg" xmlns:xlink="http://www.w3.org/1999/xlink" x="0px" y="0px"
	 viewBox="0 0 60 54.81" style="enable-background:new 0 0 60 54.81;" xml:space="preserve">
<style type="text/css">
	.st0{fill:#FFFFFF;}
	.st1{fill:#070707;}
</style>
<g>
	<path class="st0" d="M58.24,58.17c-20,0-40,0-60,0c0-20,0-40,0-60c20,0,40,0,60,0C58.24,18.17,58.24,38.17,58.24,58.17z
		 M55.83,28.87C55.85,14.02,43.56,1.43,28.84,1.63C16.11,1.81,2.2,10.34,1.73,28.68c-0.38,14.64,12.3,27.08,26.92,27.09
		C43.36,55.78,55.82,43.45,55.83,28.87z"/>
	<path class="st1" d="M55.83,28.87c-0.02,14.58-12.48,26.9-27.18,26.89C14.03,55.75,1.35,43.32,1.73,28.68
		C2.2,10.34,16.11,1.81,28.84,1.63C43.56,1.43,55.85,14.02,55.83,28.87z M4.96,28.74C5,41.87,15.67,52.53,28.76,52.51
		c13.05-0.02,23.84-10.8,23.82-23.81C52.56,15.48,41.83,4.82,28.62,4.9C15.43,4.97,4.93,15.56,4.96,28.74z"/>
	<path class="st0" d="M4.96,28.74C4.93,15.56,15.43,4.97,28.62,4.9C41.83,4.82,52.56,15.48,52.58,28.7
		c0.02,13-10.77,23.79-23.82,23.81C15.67,52.53,5,41.87,4.96,28.74z M28.9,24.26c3.54,3.63,6.89,7.04,10.33,10.57
		c0.93-0.82,1.7-1.51,2.59-2.29c-4-4.01-7.8-7.91-11.75-11.65c-0.48-0.46-2.11-0.51-2.56-0.08c-3.98,3.78-7.82,7.72-11.51,11.42
		c0.83,1,1.54,1.84,2.36,2.82C21.89,31.44,25.28,27.97,28.9,24.26z"/>
	<path class="st1" d="M28.9,24.26c-3.63,3.71-7.02,7.18-10.54,10.78c-0.82-0.98-1.53-1.83-2.36-2.82
		c3.68-3.69,7.52-7.63,11.51-11.42c0.46-0.43,2.08-0.38,2.56,0.08c3.95,3.75,7.75,7.65,11.75,11.65c-0.89,0.79-1.66,1.47-2.59,2.29
		C35.79,31.3,32.45,27.89,28.9,24.26z"/>
</g>
</svg>
